<svg width="24" height="24" viewBox="0 0 24 24" fill="none" xmlns="http://www.w3.org/2000/svg">
<path d="M12.0179 5.57856C9.65657 5.57856 7.72455 7.51058 7.72455 9.87194C7.72455 12.2333 9.65657 14.1653 12.0179 14.1653C14.3793 14.1653 16.3113 12.2333 16.3113 9.87194C16.3113 7.51058 14.3793 5.57856 12.0179 5.57856ZM12.0179 12.7342C10.4437 12.7342 9.15568 11.4462 9.15568 9.87194C9.15568 8.2977 10.4437 7.00969 12.0179 7.00969C13.5922 7.00969 14.8802 8.2977 14.8802 9.87194C14.8802 11.4462 13.5922 12.7342 12.0179 12.7342Z" fill="#8F8F8F"/>
<path d="M12.0179 2C6.47248 2 2 6.47248 2 12.0179C2 14.737 3.10912 17.2415 4.86225 19.0304C5.29159 19.4597 5.75671 19.8533 6.29338 20.2111C7.9034 21.356 9.8712 22 12.0179 22C14.1646 22 16.1322 21.3202 17.7424 20.2111C18.2433 19.8533 18.7084 19.4597 19.1735 19.0304C20.9624 17.2057 22.0358 14.737 22.0358 12.0179C22.0358 6.47248 17.5633 2 12.0179 2ZM12.0179 20.6047C9.8712 20.6047 7.93918 19.8175 6.43649 18.5295C6.83005 17.2415 8.01073 16.3113 9.40608 16.3113H14.6653C16.0606 16.3113 17.2413 17.2415 17.6349 18.5295C16.0964 19.8175 14.1644 20.6047 12.0175 20.6047H12.0179ZM18.7082 17.3846C17.9569 15.8819 16.4184 14.8801 14.6653 14.8801H9.40608C7.61717 14.8801 6.07871 15.9177 5.36315 17.3846C4.14669 15.9177 3.43113 14.0572 3.43113 12.0179C3.43113 7.29517 7.29517 3.43113 12.0179 3.43113C16.7406 3.43113 20.6047 7.29517 20.6047 12.0179C20.6047 14.0572 19.8891 15.9177 18.7084 17.3846H18.7082Z" fill="#8F8F8F"/>
</svg>
